# xmcd
#
# Track frame offsets:
#	150
#	9726
#	24863
#	35031
#	51709
#	68671
#	87563
#	102336
#	128583
#	140727
#	153861
#	169646
#	181881
#	196017
#	209994
#	217681
#	228340
#	243797
#	259694
#
# Disc length: 3749 seconds
#
# Revision: 0
# Processed by: cddbd v1.5.2PL0 Copyright (c) Steve Scherf et al.
# Submitted via: audiograbber 1.83.01
#
DISCID=050ea313
DTITLE=Chuck Berry - Rock And Roll Music - Any Old Way You Choose It [CD 12) - 
DYEAR=2014
DGENRE=Rock and Roll
TTITLE0=Maybellene
TTITLE1=Roll Over Beethoven
TTITLE2=Introduction
TTITLE3=Schooldays (School Day)
TTITLE4=No Money Down
TTITLE5=Sweet Little Sixteen
TTITLE6=Johnny B. Goode
TTITLE7=Introduction
TTITLE8=Guitar Boogie
TTITLE9=Johnny B. Goode
TTITLE10=Sweet Little Sixteen
TTITLE11=School Day
TTITLE12=Memphis
TTITLE13=Maybellene
TTITLE14=Rock And Roll Music
TTITLE15=Dust My Broom
TTITLE16=Instrumental Boogie
TTITLE17=Too Much Monkey Business
TTITLE18=Johnny B. Goode
EXTD=
EXTT0=
EXTT1=
EXTT2=
EXTT3=
EXTT4=
EXTT5=
EXTT6=
EXTT7=
EXTT8=
EXTT9=
EXTT10=
EXTT11=
EXTT12=
EXTT13=
EXTT14=
EXTT15=
EXTT16=
EXTT17=
EXTT18=
PLAYORDER=
